# xmcd CD database file
# Copyright (C) 1993-1998 Ti Kan
# Generated: Thu Apr 16 22:48:40 1998 by KSCD
# 
# Track frame offsets:
#       170
#       21033
#       41061
#       53982
#       71577
#       94887
#       113704
#       125773
#       143334
#       157624
#       179742
#       201386
#       227916
#
# Disc length: 3199 seconds
#
# Revision: 2
# Processed by: cddbd v1.4b41PL1 Copyright (c) Steve Scherf et al.
# Submitted via: Kscd 1.0
#
DISCID=b50c7d0d
DTITLE=Blues Power - Second Strike
DYEAR=1900
DGENRE=
TTITLE0=29 Ways
TTITLE1=When The Night Falls
TTITLE2=Poor Boys Blues
TTITLE3=Hey Baby
TTITLE4=Use Me
TTITLE5=Lonely No More
TTITLE6=At Your Service
TTITLE7=Always On The Phone
TTITLE8=Hegh Speed Drivin' Mama
TTITLE9=It's A Dirty Job
TTITLE10=Havin' Some Beers
TTITLE11=Stop Lying To Me
TTITLE12=When The Night Falls
EXTD=
EXTT0=
EXTT1=
EXTT2=
EXTT3=
EXTT4=
EXTT5=
EXTT6=
EXTT7=
EXTT8=
EXTT9=
EXTT10=
EXTT11=
EXTT12=
PLAYORDER=
